# xmcd
#
# Track frame offsets:
# 150
# 13226
# 35911
# 57606
# 77101
# 95736
# 114256
# 127261
# 148648
# 168746
#
# Disc length: 2425 seconds
#
#
# Revision: 0
# Processed by: cddbd v1.5.2PL0 Copyright (c) Steve Scherf et al.
# Submitted via: FreeRIP 2.951 
#
DISCID=9809770a
DTITLE=Raissa and Ravel - As 10 Mais de Raissa and Ravel
DYEAR=1900
DGENRE=Gospel
TTITLE0=O Amor
TTITLE1=Que Bom Que Tu Me Amas
TTITLE2=O Teatro
TTITLE3=Saudade
TTITLE4=A Fila da Promessa
TTITLE5=A Última Lágrima
TTITLE6=Que Maravilha
TTITLE7=Deus de Milagres
TTITLE8=Prisioneiro da Felicidade
TTITLE9=Festa de Crente
EXTD=
EXTT0=
EXTT1=
EXTT2=
EXTT3=
EXTT4=
EXTT5=
EXTT6=
EXTT7=
EXTT8=
EXTT9=
PLAYORDER=
